<svg xmlns="http://www.w3.org/2000/svg" xmlns:xlink="http://www.w3.org/1999/xlink" viewBox="0 0 1343 581">
  <g id="shadow_Image" data-name="shadow Image">
    <image id="shadow_Image-2" data-name="shadow Image" width="1336" height="573" transform="translate(5 6)" xlink:href="sofa-main.png"/>
  </g>
  <g id="legs" class="addColor" style="isolation: isolate">
    <path d="M1227,430h64c-3.31,64.69-8.4,124.92-10,136-2.79,9.54-47.09,6-49-2C1229.86,549.63,1228.36,516,1227,430Z" fill-rule="evenodd"/>
    <path d="M1135,430h43c-.52,9.92-.27,15.95-2,28-.54,2.61-5.66,3.3-20,3-11.48-.24-16.89-.41-20-4C1134.31,450.5,1135.16,445.9,1135,430Z" fill-rule="evenodd"/>
    <path d="M207,429c-.43,9.67-.84,23.51-1,27-1,3-2.64,5.11-22,5-12.34.12-18.49.47-19-4a215,215,0,0,1-1-28C170.58,429,184.17,428.58,207,429Z" fill-rule="evenodd"/>
    <path d="M49,428c18.25.34,43.56.4,65,1-1.87,61.29-4.17,120.49-5,134-.63,6.19-11.36,7.82-27,8-15.9-.23-22.23-1-23-6C56.68,544.45,53.76,504.26,49,428Z" fill-rule="evenodd"/>
  </g>
  <g id="sofa" class="addColor" style="isolation: isolate">
    <path d="M586,21c.42,2.84,1.89,9.7,3,17,54.57,0,149.81-.12,163,0,1.29-5.53,2.15-14.6,3-17,1.08-2,4.39-1,6-2,8-5.54,41.16-10.88,238-7,187.37-3.63,212.86,1.43,224,7.34,3.69,1.4,6-.94,8,1.66,1.68,2.89,9.65,63,16,182-5.82-.4-33.12-3.38-72-4-25.46-.4-134.7,3-124,39,1.75,5.9,9,8.31,23,18,12.9,9,20.51,23.41,36,27,18.76,4.35,149.5,10.89,193,15,7.12,5.5,27.46,19.69,28,25,1.91,12.68-.83,67.2,0,70,.51,2.36,1.35,6.7,1,21-.17,6.88,1,15.71-2,16-550.86-.95-754.49.07-1320-2-3-2.49-1.67-19.3-2-27-.27-6.32,2.48-7.72,2-12-1.41-11.42-2.29-49.27-1-65,.05-6.39,7.54-10.53,28-25,40.56-7.16,173.06-9.19,191-15,11-3.57,19.1-13,36-27,18.66-15.48,23.46-13.32,26-19,6.61-19.5-44-37.9-119-42-30.88-.74-60.28,2.68-76,6,5.93-97.28,9.67-165.57,15-179,2.33-4.88,2.36-2.13,10-4,9.56-2.34,3.26-11.69,227-7,207.76-3,220.7,2.9,231,7C581.28,20.3,585.41,19.05,586,21Z M674,210c-.08,5.08,19.6,5.22,34,5,29,.17,37-.35,37-5-.52-2.67-3.77-4.9-33-5C683.2,204.61,675.71,207.08,674,210Z M591,211c.16,3.7,8.85,4.09,34,4,25.46,0,36-.61,36-5,0-3.12-7.17-5.13-33-5C597.62,205.15,591.18,206.86,591,211Z" fill-rule="evenodd"/>
  </g>
  <g id="pillows" class="addColor" style="isolation: isolate">
    <path d="M290,238c-3.1,6.85-11.26,4.37-53,43-6.51,5-22.24,6.54-102,10-52.65,2.48-64.26,4-96,8-9.66,1.71-21.06-3.95-21-7,.19-3.22,4.67-2.7,3-5-6-8.22-5.84-32.32-3-40,1-3.14-3.35-1.46-3-6,.92-4.52,6.46-2.68,10-6,3.09-2.73,48.87-40.21,131-40C243.74,198.07,298.91,216.43,290,238Z" fill-rule="evenodd"/>
    <path d="M1325,242c0,3.71-2.37,3.72-2,6,3.12,19.15-.43,32.61-3,38-.74,4.31,3.4,3.61,1,8-3,4.1-10.4,5.83-15,5-32.74-5.92-196.09-9.41-207-21-24-24.25-44.64-30.93-48-39-9.73-25.16,52.16-47.68,177-38,42.61,2.94,65.41,19.54,87,34C1320.08,238.24,1325,236.81,1325,242Z" fill-rule="evenodd"/>
  </g>
</svg>
